<?xml version="1.0" standalone="no"?>
<!DOCTYPE svg PUBLIC "-//W3C//DTD SVG 20010904//EN"
 "http://www.w3.org/TR/2001/REC-SVG-20010904/DTD/svg10.dtd">
<svg version="1.0" xmlns="http://www.w3.org/2000/svg"
 width="107.000000pt" height="71.000000pt" viewBox="0 0 107.000000 71.000000"
 preserveAspectRatio="xMidYMid meet">
<metadata>
Created by potrace 1.10, written by Peter Selinger 2001-2011
</metadata>
<g transform="translate(0.000000,71.000000) scale(0.100000,-0.100000)"
fill="#000000" stroke="none">
<path d="M470 658 c-24 -16 -39 -37 -48 -65 -9 -27 -42 -74 -93 -130 -74 -82
-102 -127 -158 -256 -26 -60 -45 -57 -49 6 -3 39 -6 47 -23 47 -17 0 -19 -8
-19 -94 0 -103 5 -126 26 -126 9 0 14 12 14 34 0 19 3 41 6 50 7 19 35 21 52
4 9 -9 21 -9 50 0 70 21 112 9 62 -18 -24 -13 -26 -52 -5 -70 22 -18 128 -18
150 0 13 11 16 24 12 55 l-4 42 81 -4 c45 -3 85 -6 90 -7 5 -1 10 -20 10 -41
1 -31 6 -42 26 -52 30 -15 89 -17 124 -3 33 12 37 63 6 82 -33 21 -23 31 23
24 48 -8 81 -9 117 -4 23 3 25 0 28 -45 3 -39 6 -48 20 -45 15 3 17 18 17 108
0 90 -2 105 -17 108 -14 3 -17 -6 -20 -45 -4 -68 -26 -63 -58 12 -42 101 -87
171 -155 243 -35 38 -73 89 -83 113 -40 90 -115 122 -182 77z m137 -43 c27
-30 29 -55 9 -94 -14 -27 -53 -51 -82 -51 -31 0 -72 30 -83 61 -12 36 5 90 36
108 30 19 95 6 120 -24z m-228 -188 c-67 -65 -113 -134 -144 -219 -10 -26 -24
-53 -31 -59 -28 -23 -14 47 26 130 48 98 180 245 202 223 9 -9 -2 -26 -53 -75z
m345 10 c74 -76 141 -191 153 -262 10 -61 -21 -32 -56 52 -43 100 -69 140
-135 204 -54 52 -69 79 -45 79 7 0 44 -33 83 -73z m-76 -9 c39 -24 100 -102
135 -173 35 -70 37 -89 10 -93 -23 -3 -28 11 -35 92 -3 27 -13 35 -96 78 -52
27 -106 48 -124 48 -39 0 -165 -60 -207 -99 -26 -24 -31 -36 -31 -75 0 -44 -1
-46 -30 -46 l-30 0 15 38 c26 62 75 137 132 201 l55 61 86 -6 c60 -5 97 -13
120 -26z m-10 -113 c103 -53 102 -52 102 -134 0 -60 3 -73 20 -83 41 -26 11
-58 -53 -58 -49 0 -61 19 -52 83 14 97 13 98 -31 130 -26 18 -55 29 -77 30
-45 1 -135 -40 -143 -65 -3 -11 0 -49 7 -85 12 -61 12 -66 -6 -79 -37 -27
-105 -11 -105 25 0 11 7 22 16 25 14 6 16 17 11 81 l-7 75 88 44 c109 56 140
58 230 11z m-49 -75 c37 -19 51 -36 51 -66 0 -11 -20 -14 -100 -14 -87 0 -101
2 -109 19 -8 14 -5 23 12 38 53 48 87 53 146 23z"/>
<path d="M38 254 c-11 -11 -10 -202 1 -209 15 -8 24 99 15 161 -5 31 -12 52
-16 48z"/>
<path d="M1011 208 c0 -29 4 -75 9 -103 6 -43 8 -35 9 53 0 62 -3 102 -9 102
-6 0 -10 -24 -9 -52z"/>
</g>
</svg>
