<?xml version="1.0" standalone="no"?>
<!DOCTYPE svg PUBLIC "-//W3C//DTD SVG 20010904//EN"
 "http://www.w3.org/TR/2001/REC-SVG-20010904/DTD/svg10.dtd">
<svg version="1.0" xmlns="http://www.w3.org/2000/svg"
 width="300.000000pt" height="79.000000pt" viewBox="0 0 300.000000 79.000000"
 preserveAspectRatio="xMidYMid meet">
<metadata>
Created by potrace 1.10, written by Peter Selinger 2001-2011
</metadata>
<g transform="translate(0.000000,79.000000) scale(0.100000,-0.100000)"
fill="#000000" stroke="none">
<path d="M2353 674 c-3 -8 -1 -20 5 -26 16 -16 42 -2 42 22 0 24 -38 28 -47 4z"/>
<path d="M1063 650 c-35 -21 -73 -85 -73 -122 0 -13 9 -42 20 -66 26 -58 72
-78 150 -66 55 9 55 9 58 47 2 22 10 41 18 44 32 12 11 23 -43 22 -56 0 -57
-1 -35 -16 14 -10 22 -26 22 -44 0 -28 -2 -29 -44 -29 -36 0 -48 5 -65 26 -28
36 -34 59 -26 111 8 55 42 93 83 93 39 0 60 -25 44 -51 -17 -26 -15 -29 13
-29 32 0 50 32 35 60 -23 42 -104 53 -157 20z"/>
<path d="M2070 660 c0 -6 7 -13 15 -16 23 -9 22 -200 -2 -226 -15 -17 -13 -18
47 -18 l63 0 -27 25 c-16 15 -26 35 -26 53 0 26 3 28 29 24 69 -10 137 59 113
114 -15 31 -38 40 -134 48 -53 5 -78 3 -78 -4z m160 -40 c27 -27 25 -46 -5
-76 -17 -17 -34 -24 -53 -22 -23 3 -28 8 -30 37 -6 59 5 81 38 81 17 0 39 -9
50 -20z"/>
<path d="M432 634 c-12 -8 -29 -31 -37 -51 -8 -19 -39 -61 -68 -93 -30 -32
-61 -78 -71 -106 -11 -27 -23 -55 -29 -61 -14 -19 -27 -6 -27 28 0 16 -4 29
-10 29 -6 0 -10 -32 -10 -76 0 -56 3 -75 13 -72 6 3 13 19 15 36 3 32 15 41
27 22 4 -6 23 -7 47 -4 38 7 39 6 27 -13 -23 -38 -5 -54 53 -51 53 3 53 3 53
36 l0 33 55 -3 c52 -3 55 -4 60 -33 6 -36 49 -52 93 -36 30 12 35 32 12 54
-13 13 -7 15 45 14 49 -1 60 -5 60 -19 0 -26 11 -48 21 -42 12 7 12 141 0 148
-10 7 -21 -17 -21 -45 0 -35 -15 -19 -47 50 -18 38 -55 93 -81 122 -27 30 -57
70 -66 90 -16 34 -50 59 -79 59 -7 0 -23 -7 -35 -16z m86 -26 c20 -17 14 -65
-10 -82 -12 -9 -29 -16 -37 -16 -24 0 -51 32 -51 61 0 49 56 70 98 37z m-108
-84 c0 -3 -21 -26 -46 -50 -27 -27 -58 -72 -77 -112 -18 -40 -32 -60 -34 -50
-6 27 42 119 90 171 39 41 67 59 67 41z m187 -36 c41 -42 103 -147 103 -174 0
-31 -19 -11 -40 42 -13 31 -45 80 -72 109 -26 29 -48 56 -48 59 0 15 19 3 57
-36z m-58 -2 c32 -17 69 -62 100 -124 23 -46 22 -59 -4 -49 -9 4 -15 19 -15
40 0 31 -5 37 -59 66 -69 37 -97 38 -154 10 -61 -31 -87 -58 -87 -91 0 -21 -5
-28 -20 -28 -20 0 -20 1 4 48 13 26 43 68 66 95 39 44 45 47 91 47 28 0 63 -6
78 -14z m26 -90 c43 -26 45 -29 45 -74 0 -27 5 -53 12 -60 18 -18 -3 -34 -38
-30 -29 3 -29 4 -26 61 2 55 1 58 -30 77 -40 24 -57 25 -102 3 -42 -20 -48
-32 -35 -75 5 -18 9 -38 9 -45 0 -15 -35 -26 -60 -18 -21 7 -28 35 -9 35 6 0
9 20 8 51 l-3 52 55 28 c65 35 108 33 174 -5z m-47 -42 c12 -8 22 -22 22 -30
0 -12 -13 -14 -67 -12 -74 3 -90 18 -46 42 36 20 63 20 91 0z"/>
<path d="M1553 592 c-26 -4 -31 -27 -8 -36 11 -4 15 -21 15 -64 0 -50 -3 -62
-22 -75 -22 -15 -20 -16 37 -16 57 0 59 1 38 16 -40 27 -24 143 20 151 34 7
47 -17 47 -84 0 -49 -4 -65 -17 -73 -14 -8 -6 -10 36 -11 52 0 53 1 38 18 -17
19 -22 77 -11 120 9 31 53 41 71 17 19 -26 18 -135 -1 -135 -8 0 -18 -4 -21
-10 -4 -6 16 -10 52 -10 48 1 55 3 42 13 -10 8 -18 36 -22 82 -7 76 -21 95
-67 95 -14 0 -35 -7 -47 -15 -18 -13 -22 -13 -33 0 -15 18 -71 20 -88 3 -9 -9
-15 -9 -24 3 -7 8 -23 13 -35 11z"/>
<path d="M2370 593 c-43 -12 -43 -13 -26 -31 11 -13 16 -37 16 -74 0 -46 -4
-58 -22 -71 -22 -15 -20 -16 37 -16 55 0 58 1 40 15 -16 12 -21 30 -25 98 -4
67 -8 82 -20 79z"/>
<path d="M2495 592 c-30 -6 -41 -20 -22 -28 24 -9 24 -120 0 -146 -15 -17 -14
-18 38 -18 47 1 52 2 37 14 -14 10 -18 28 -18 75 0 56 2 62 26 73 42 20 59 1
62 -72 2 -50 0 -65 -15 -76 -16 -12 -12 -13 37 -13 45 0 52 2 39 12 -11 8 -18
35 -21 81 -5 51 -11 73 -24 83 -21 15 -70 17 -79 3 -9 -14 -33 -12 -37 3 -2 7
-12 11 -23 9z"/>
<path d="M1270 581 c0 -5 7 -11 15 -14 16 -7 55 -80 75 -140 10 -32 9 -41 -4
-62 -20 -31 -56 -34 -56 -5 0 23 -13 26 -29 6 -27 -32 26 -69 67 -47 20 11 32
31 96 174 23 50 41 77 51 77 9 0 13 5 10 10 -3 6 -24 10 -46 10 -21 0 -39 -4
-39 -10 0 -5 5 -10 10 -10 6 0 10 -7 10 -15 0 -21 -31 -95 -39 -95 -5 0 -14
19 -21 41 -19 56 -47 89 -76 89 -13 0 -24 -4 -24 -9z"/>
<path d="M2750 570 c-24 -24 -25 -47 -3 -72 15 -17 15 -19 0 -36 -34 -37 -16
-53 76 -66 54 -8 72 -31 42 -52 -40 -29 -111 -10 -103 27 2 8 -5 14 -17 14
-22 0 -31 -31 -16 -53 10 -17 79 -27 124 -18 59 11 86 82 39 101 -9 4 -41 10
-71 14 -70 8 -78 27 -15 37 59 9 88 36 80 75 -4 21 -2 29 9 29 7 0 17 5 20 10
4 6 -22 10 -69 10 -63 0 -80 -4 -96 -20z m84 -6 c38 -37 1 -98 -44 -74 -26 14
-27 65 -2 79 23 14 28 14 46 -5z"/>
<path d="M1917 504 c-12 -12 4 -24 31 -24 37 0 72 11 72 21 0 10 -93 12 -103
3z"/>
<path d="M147 363 c-11 -10 -8 -121 3 -128 6 -4 10 20 10 64 0 71 -1 77 -13
64z"/>
<path d="M787 313 c6 -84 11 -88 12 -10 1 37 -3 67 -7 67 -5 0 -7 -26 -5 -57z"/>
<path d="M1370 165 c0 -47 3 -55 19 -55 14 0 17 6 13 27 -4 21 -2 25 12 20 9
-4 16 -2 16 3 0 6 -9 10 -21 10 -12 0 -19 5 -16 13 2 6 16 11 31 9 14 -1 26 1
26 7 0 11 -25 21 -56 21 -22 0 -24 -3 -24 -55z"/>
<path d="M1660 209 c0 -8 -10 -19 -22 -24 -45 -20 -30 -75 21 -75 25 0 26 2
23 48 -4 43 -22 87 -22 51z m0 -54 c0 -16 -6 -25 -15 -25 -15 0 -21 31 -8 43
13 14 23 6 23 -18z"/>
<path d="M1800 165 c0 -43 3 -55 15 -55 11 0 14 7 9 24 -5 20 -1 25 18 29 23
4 23 4 1 6 -14 0 -23 7 -23 17 0 12 6 15 25 10 27 -7 35 8 9 18 -44 17 -54 8
-54 -49z"/>
<path d="M2083 213 c-7 -2 -13 -9 -13 -15 0 -6 7 -8 15 -4 12 4 15 -4 15 -39
0 -38 3 -45 19 -45 16 0 18 4 12 28 -10 37 -3 65 15 58 8 -3 14 -1 14 3 0 17
-48 26 -77 14z"/>
<path d="M2188 214 c-12 -11 -9 -104 2 -104 6 0 13 6 15 13 7 18 -9 100 -17
91z"/>
<path d="M1940 161 c0 -42 14 -61 33 -42 8 8 8 11 -2 11 -8 0 -11 11 -9 32 2
19 -2 33 -9 35 -9 3 -13 -8 -13 -36z"/>
<path d="M1466 183 c-3 -3 -6 -21 -6 -40 0 -23 5 -33 15 -33 10 0 15 10 15 34
0 34 -11 52 -24 39z"/>
<path d="M1527 183 c-10 -10 -8 -73 2 -73 5 0 12 15 17 33 l8 32 3 -32 c4 -33
33 -49 33 -19 0 47 -39 84 -63 59z"/>
<path d="M1890 161 c0 -17 0 -34 -1 -38 0 -4 4 -9 10 -11 14 -5 15 65 1 73 -6
4 -10 -7 -10 -24z"/>
<path d="M2224 168 c3 -13 6 -31 6 -40 0 -10 5 -18 10 -18 11 0 13 39 4 64 -9
25 -27 19 -20 -6z"/>
<path d="M2280 150 c0 -22 5 -40 10 -40 6 0 10 14 10 30 0 22 5 30 18 30 14 0
15 2 2 10 -29 19 -40 11 -40 -30z"/>
<path d="M2357 183 c-13 -12 -8 -73 6 -73 9 0 11 12 9 40 -4 42 -5 44 -15 33z"/>
<path d="M2400 176 c0 -8 8 -24 19 -37 l18 -23 17 32 c18 36 19 42 7 42 -5 0
-12 -10 -16 -22 l-8 -23 -4 23 c-5 24 -33 31 -33 8z"/>
<path d="M2490 175 c-25 -31 9 -76 46 -60 18 8 17 9 -3 12 -16 3 -23 11 -23
26 1 21 1 21 14 4 9 -12 16 -14 21 -7 8 13 -12 40 -30 40 -7 0 -18 -7 -25 -15z"/>
</g>
</svg>
